<svg width="107" height="107" viewBox="0 0 107 107" fill="none" xmlns="http://www.w3.org/2000/svg">
<path fill-rule="evenodd" clip-rule="evenodd" d="M104.676 37.8553C104.103 35.9781 103.429 34.1447 102.661 32.3614L73.4016 3.82427C71.601 3.10223 69.7521 2.47525 67.861 1.94953L104.676 37.8553ZM65.9144 1.44789C64.4346 1.09625 62.931 0.806084 61.4064 0.580234L106.207 44.2747C105.943 42.7566 105.615 41.2605 105.226 39.7892L65.9144 1.44789ZM75.9722 4.93455C87.054 10.0711 96.082 18.889 101.486 29.8184L75.9722 4.93455ZM106.664 59.5231C106.785 58.4425 106.874 57.3522 106.93 56.2531L49.4105 0.15393C48.3134 0.236847 47.2255 0.352852 46.1479 0.500951L106.664 59.5231ZM44.9059 0.686525C43.8806 0.852075 42.865 1.04676 41.8601 1.26971L106.003 63.829C106.201 62.819 106.37 61.7988 106.51 60.7693L44.9059 0.686525ZM106.999 53.5C106.999 53.9703 106.993 54.4391 106.981 54.9064L50.7557 0.0691391C51.6645 0.0232312 52.5793 0 53.4995 0C53.7785 0 54.0571 0.00213658 54.3351 0.00639428L106.956 51.3282C106.985 52.0485 106.999 52.7726 106.999 53.5ZM106.877 49.8543C106.788 48.5309 106.651 47.2208 106.467 45.9255L59.7496 0.361196C58.4504 0.210028 57.137 0.105406 55.8111 0.0490413L106.877 49.8543ZM104.743 68.9227C104.471 69.8293 104.175 70.7258 103.856 71.6114L34.1351 3.61201C35.0126 3.27119 35.9012 2.95285 36.8004 2.65769L104.743 68.9227ZM30.6308 5.12007C31.4492 4.73252 32.2791 4.36511 33.1197 4.01851L103.475 72.6368C103.15 73.4861 102.803 74.325 102.437 75.1529L30.6308 5.12007ZM29.6747 5.58451L101.996 76.1203C101.618 76.9287 101.221 77.7262 100.805 78.512L27.3137 6.83552C28.0889 6.39956 28.8762 5.98235 29.6747 5.58451ZM105.058 67.8329C105.318 66.8957 105.553 65.9482 105.762 64.991L40.7047 1.53963C39.7534 1.77307 38.8122 2.03194 37.8818 2.31549L105.058 67.8329ZM98.9915 81.6694C99.4483 80.9332 99.8878 80.1851 100.309 79.4256L26.4128 7.35374C25.6642 7.79408 24.9273 8.2521 24.2027 8.72725L98.9915 81.6694ZM98.4443 82.5326C97.9759 83.2562 97.4906 83.9678 96.9888 84.6668L21.2562 10.8041C21.9425 10.285 22.6418 9.782 23.3534 9.29577L98.4443 82.5326ZM94.8237 87.4811C95.3619 86.8274 95.8848 86.1608 96.392 85.4816L20.4564 11.4209C19.7902 11.9448 19.1367 12.4842 18.4965 13.0385L94.8237 87.4811ZM94.1792 88.2494C93.7826 88.7132 93.3782 89.1702 92.9662 89.6201L16.4043 14.9486C16.8439 14.5256 17.2907 14.1099 17.7445 13.702L94.1792 88.2494ZM90.5008 92.1414C91.109 91.5588 91.7036 90.962 92.2839 90.3515L15.6901 15.6489C15.0943 16.2441 14.5124 16.8533 13.945 17.4759L90.5008 92.1414ZM89.7715 92.8271C89.1466 93.4038 88.5078 93.9657 87.8559 94.5125L11.6405 20.1789C12.1709 19.5135 12.7168 18.861 13.2777 18.222L89.7715 92.8271ZM85.0555 96.7072C85.7426 96.2045 86.4173 95.6858 87.079 95.1517L11.0208 20.9714C10.5034 21.6461 10.0017 22.3335 9.5162 23.033L85.0555 96.7072ZM84.2302 97.2991C83.5214 97.7972 82.8001 98.2787 82.0666 98.7427L7.55587 26.0717C8.00152 25.3268 8.46478 24.5937 8.94506 23.8729L84.2302 97.2991ZM78.9114 100.591C79.6827 100.174 80.4427 99.7386 81.1907 99.2853L7.03541 26.961C6.60097 27.72 6.18459 28.4906 5.78685 29.2723L78.9114 100.591ZM77.9822 101.082C77.182 101.495 76.3699 101.888 75.5468 102.26L4.2027 32.6779C4.55474 31.8454 4.92726 31.0238 5.31961 30.2135L77.9822 101.082ZM71.9909 103.718C72.8581 103.399 73.7148 103.058 74.5603 102.695L3.79287 33.675C3.45187 34.5293 3.13226 35.3943 2.83468 36.2696L71.9909 103.718ZM70.942 104.092C70.0345 104.405 69.1158 104.694 68.1869 104.959L1.69033 40.1041C1.93156 39.1685 2.19746 38.2427 2.4873 37.3276L70.942 104.092ZM64.1435 105.941C65.1284 105.742 66.1035 105.516 67.068 105.264L1.41301 41.2305C1.18531 42.2009 0.984021 43.1814 0.809951 44.1714L64.1435 105.941ZM62.9448 106.169C61.8998 106.355 60.8443 106.511 59.7793 106.635L0.225258 48.5518C0.323214 47.4836 0.452566 46.4246 0.612384 45.3756L62.9448 106.169ZM55.0791 106.977C56.2241 106.944 57.36 106.875 58.4859 106.771L0.12215 49.848C0.046149 50.9755 0.00507519 52.1125 0 53.258L55.0791 106.977ZM53.6701 107L53.4995 107C52.6503 107 51.8057 106.98 50.9662 106.941L0.137077 57.367C0.0732033 56.4727 0.0313088 55.5724 0.0119309 54.6665L53.6701 107ZM0.267738 58.8913L49.4388 106.848C48.0581 106.745 46.692 106.589 45.3425 106.382L0.835789 62.9744C0.595558 61.6301 0.405538 60.2684 0.267738 58.8913ZM1.17386 64.701C1.51891 66.3207 1.93726 67.9134 2.42529 69.4752L38.8051 104.957C40.3777 105.405 41.9799 105.783 43.6081 106.087L1.17386 64.701ZM5.73865 77.6327C4.74583 75.6717 3.87024 73.6413 3.12108 71.5507L36.7135 104.314C34.6047 103.617 32.5539 102.794 30.5703 101.851L5.73865 77.6327ZM7.37756 80.628C12.2191 88.8417 19.1922 95.6489 27.5362 100.289L7.37756 80.628Z" fill="url(#paint0_linear_38_212)" fill-opacity="0.3"/>
<defs>
<linearGradient id="paint0_linear_38_212" x1="53.4995" y1="0" x2="53.4995" y2="107" gradientUnits="userSpaceOnUse">
<stop stop-color="#F88351"/>
<stop offset="0.494792" stop-color="#51BAF5"/>
<stop offset="1" stop-color="#888686"/>
</linearGradient>
</defs>
</svg>
